<?xml version="1.0" standalone="no"?>
<!DOCTYPE svg PUBLIC "-//W3C//DTD SVG 20010904//EN"
 "http://www.w3.org/TR/2001/REC-SVG-20010904/DTD/svg10.dtd">
<svg version="1.0" xmlns="http://www.w3.org/2000/svg"
 width="410.000000pt" height="462.000000pt" viewBox="0 0 410.000000 462.000000"
 preserveAspectRatio="xMidYMid meet">

<g transform="translate(0.000000,462.000000) scale(0.100000,-0.100000)"
fill="#000000" stroke="none">
<path d="M196 4604 c-35 -11 -65 -31 -106 -72 -100 -101 -91 127 -88 -2237 l3
-2070 24 -53 c46 -103 159 -172 279 -172 l42 0 0 2310 0 2310 -52 -1 c-29 0
-75 -7 -102 -15z"/>
<path d="M3760 4144 c0 -264 -3 -1304 -7 -2313 l-6 -1834 69 5 c121 9 212 68
258 167 l21 46 0 2095 0 2095 -21 46 c-45 97 -136 159 -246 167 l-68 5 0 -479z"/>
<path d="M473 4413 c-10 -10 -14 -15 -8 -11 7 4 14 6 17 3 3 -3 11 1 18 10 17
21 -3 19 -27 -2z"/>
<path d="M540 4426 c0 -2 7 -7 16 -10 8 -3 12 -2 9 4 -6 10 -25 14 -25 6z"/>
<path d="M705 4420 c-3 -6 1 -7 9 -4 18 7 21 14 7 14 -6 0 -13 -4 -16 -10z"/>
<path d="M860 4426 c0 -2 7 -7 16 -10 8 -3 12 -2 9 4 -6 10 -25 14 -25 6z"/>
<path d="M925 4419 c-11 -16 -1 -19 13 -3 7 8 8 14 3 14 -5 0 -13 -5 -16 -11z"/>
<path d="M1077 4424 c-4 -4 -7 -12 -7 -18 0 -6 4 -5 9 3 6 9 15 11 27 6 11 -5
23 -7 29 -6 5 1 15 -6 22 -15 7 -10 13 -13 13 -7 0 6 -6 15 -12 21 -18 13 -72
24 -81 16z"/>
<path d="M1226 4423 c6 -4 14 -15 17 -23 5 -11 6 -9 4 4 -1 11 -9 21 -17 23
-10 3 -11 2 -4 -4z"/>
<path d="M1290 4420 c0 -5 7 -7 15 -4 8 4 15 8 15 10 0 2 -7 4 -15 4 -8 0 -15
-4 -15 -10z"/>
<path d="M1363 4405 c7 -13 18 -27 25 -30 9 -3 8 4 -3 25 -19 36 -38 41 -22 5z"/>
<path d="M1400 4426 c0 -2 7 -7 16 -10 8 -3 12 -2 9 4 -6 10 -25 14 -25 6z"/>
<path d="M1508 4423 c6 -3 13 -17 13 -31 1 -21 2 -22 6 -7 3 11 11 25 18 31
11 8 7 11 -18 11 -18 0 -26 -2 -19 -4z"/>
<path d="M1643 4420 c-13 -5 -23 -12 -23 -14 0 -3 7 -2 17 1 12 5 14 3 8 -8
-5 -8 2 -5 16 6 13 11 26 21 28 22 11 7 -26 1 -46 -7z"/>
<path d="M1737 4403 c31 -32 43 -32 43 -2 0 12 -7 19 -19 19 -11 0 -27 3 -36
6 -9 4 -5 -6 12 -23z"/>
<path d="M1958 4423 c6 -2 12 -11 12 -19 0 -8 5 -14 10 -14 16 0 11 27 -6 34
-9 3 -19 6 -22 5 -4 0 -1 -3 6 -6z"/>
<path d="M2153 4418 c-6 -7 -13 -19 -17 -25 -12 -21 18 -5 32 17 13 22 1 28
-15 8z"/>
<path d="M2205 4420 c-3 -6 1 -7 9 -4 18 7 21 14 7 14 -6 0 -13 -4 -16 -10z"/>
<path d="M2325 4422 c-5 -4 -11 -14 -13 -22 -3 -11 3 -9 20 5 13 11 25 21 27
22 2 2 -2 3 -10 3 -8 0 -18 -4 -24 -8z"/>
<path d="M2396 4413 c12 -12 22 -15 27 -9 5 7 13 4 22 -8 8 -11 15 -15 15 -9
0 15 -21 30 -54 39 -28 7 -29 7 -10 -13z"/>
<path d="M2607 4424 c-4 -4 -7 -12 -7 -18 0 -6 4 -5 9 3 6 9 15 11 27 6 11 -5
23 -7 29 -6 5 1 15 -6 22 -15 7 -10 13 -13 13 -7 0 6 -6 15 -12 21 -18 13 -72
24 -81 16z"/>
<path d="M2750 4426 c0 -2 7 -7 16 -10 8 -3 12 -2 9 4 -6 10 -25 14 -25 6z"/>
<path d="M2815 4419 c-4 -6 -5 -12 -2 -15 2 -3 7 2 10 11 7 17 1 20 -8 4z"/>
<path d="M2883 4414 c15 -8 27 -22 28 -32 0 -11 2 -13 6 -4 6 17 -25 52 -46
52 -10 -1 -5 -7 12 -16z"/>
<path d="M3145 4420 c-3 -6 1 -7 9 -4 18 7 21 14 7 14 -6 0 -13 -4 -16 -10z"/>
<path d="M3387 4416 c-4 -10 -3 -15 3 -11 6 3 10 1 10 -6 0 -7 3 -10 6 -6 3 3
2 13 -4 22 -8 16 -9 16 -15 1z"/>
<path d="M3536 4423 c7 -4 14 -17 17 -28 5 -16 5 -15 4 4 -1 14 -9 26 -17 28
-10 3 -11 2 -4 -4z"/>
<path d="M3607 4423 c-3 -5 5 -8 18 -8 13 0 21 3 18 8 -2 4 -10 7 -18 7 -8 0
-16 -3 -18 -7z"/>
<path d="M2021 4394 c0 -11 3 -14 6 -6 3 7 2 16 -1 19 -3 4 -6 -2 -5 -13z"/>
<path d="M2274 4388 l-19 -23 23 19 c21 18 27 26 19 26 -2 0 -12 -10 -23 -22z"/>
<path d="M576 4385 c4 -8 8 -15 10 -15 2 0 4 7 4 15 0 8 -4 15 -10 15 -5 0 -7
-7 -4 -15z"/>
<path d="M1450 4360 c11 -22 23 -40 25 -40 3 0 -4 18 -15 40 -11 22 -23 40
-25 40 -3 0 4 -18 15 -40z"/>
<path d="M2191 4384 c0 -11 3 -14 6 -6 3 7 2 16 -1 19 -3 4 -6 -2 -5 -13z"/>
<path d="M3652 4380 c0 -14 2 -19 5 -12 2 6 2 18 0 25 -3 6 -5 1 -5 -13z"/>
<path d="M3691 4384 c0 -11 -9 -28 -19 -37 -21 -19 -37 -23 -27 -6 4 6 -2 5
-13 -2 -23 -15 -19 -34 5 -24 9 3 25 -2 37 -12 20 -17 21 -17 4 2 -17 18 -17
20 3 41 12 12 19 30 16 41 -4 16 -5 15 -6 -3z"/>
<path d="M1021 4374 c0 -11 3 -14 6 -6 3 7 2 16 -1 19 -3 4 -6 -2 -5 -13z"/>
<path d="M2551 4374 c0 -11 3 -14 6 -6 3 7 2 16 -1 19 -3 4 -6 -2 -5 -13z"/>
<path d="M3091 4374 c0 -11 3 -14 6 -6 3 7 2 16 -1 19 -3 4 -6 -2 -5 -13z"/>
<path d="M3355 4360 l-17 -35 22 23 c12 12 20 28 17 35 -2 7 -12 -4 -22 -23z"/>
<path d="M871 4364 c0 -11 3 -14 6 -6 3 7 2 16 -1 19 -3 4 -6 -2 -5 -13z"/>
<path d="M1061 4364 c0 -11 3 -14 6 -6 3 7 2 16 -1 19 -3 4 -6 -2 -5 -13z"/>
<path d="M1961 4364 c0 -11 3 -14 6 -6 3 7 2 16 -1 19 -3 4 -6 -2 -5 -13z"/>
<path d="M2591 4364 c0 -11 3 -14 6 -6 3 7 2 16 -1 19 -3 4 -6 -2 -5 -13z"/>
<path d="M2761 4364 c0 -11 3 -14 6 -6 3 7 2 16 -1 19 -3 4 -6 -2 -5 -13z"/>
<path d="M2801 4364 c0 -11 3 -14 6 -6 3 7 2 16 -1 19 -3 4 -6 -2 -5 -13z"/>
<path d="M3411 4364 c0 -11 3 -14 6 -6 3 7 2 16 -1 19 -3 4 -6 -2 -5 -13z"/>
<path d="M480 4366 c0 -3 9 -10 20 -16 11 -6 20 -8 20 -6 0 3 -9 10 -20 16
-11 6 -20 8 -20 6z"/>
<path d="M911 4354 c0 -11 3 -14 6 -6 3 7 2 16 -1 19 -3 4 -6 -2 -5 -13z"/>
<path d="M1172 4345 c0 -16 2 -22 5 -12 2 9 2 23 0 30 -3 6 -5 -1 -5 -18z"/>
<path d="M1361 4354 c0 -11 3 -14 6 -6 3 7 2 16 -1 19 -3 4 -6 -2 -5 -13z"/>
<path d="M2031 4354 c0 -11 3 -14 6 -6 3 7 2 16 -1 19 -3 4 -6 -2 -5 -13z"/>
<path d="M2110 4350 c-6 -11 -8 -20 -6 -20 3 0 10 9 16 20 6 11 8 20 6 20 -3
0 -10 -9 -16 -20z"/>
<path d="M2462 4340 c0 -19 2 -27 5 -17 2 9 2 25 0 35 -3 9 -5 1 -5 -18z"/>
<path d="M2702 4345 c0 -16 2 -22 5 -12 2 9 2 23 0 30 -3 6 -5 -1 -5 -18z"/>
<path d="M1231 4344 c0 -11 3 -14 6 -6 3 7 2 16 -1 19 -3 4 -6 -2 -5 -13z"/>
<path d="M1425 4315 c15 -27 32 -54 38 -60 6 -5 -2 13 -18 40 -15 28 -32 55
-38 60 -6 6 2 -12 18 -40z"/>
<path d="M2856 4345 c-3 -8 -1 -15 4 -15 6 0 10 7 10 15 0 8 -2 15 -4 15 -2 0
-6 -7 -10 -15z"/>
<path d="M1512 4330 c0 -14 2 -19 5 -12 2 6 2 18 0 25 -3 6 -5 1 -5 -13z"/>
<path d="M3582 4330 c0 -14 2 -19 5 -12 2 6 2 18 0 25 -3 6 -5 1 -5 -13z"/>
<path d="M455 4329 c7 -10 85 -52 85 -45 0 2 -20 16 -45 30 -25 13 -43 21 -40
15z"/>
<path d="M531 4337 c2 -1 15 -11 29 -22 l25 -20 -19 23 c-11 12 -24 22 -29 22
-6 0 -8 -1 -6 -3z"/>
<path d="M641 4324 c0 -11 3 -14 6 -6 3 7 2 16 -1 19 -3 4 -6 -2 -5 -13z"/>
<path d="M2181 4324 c0 -11 3 -14 6 -6 3 7 2 16 -1 19 -3 4 -6 -2 -5 -13z"/>
<path d="M3421 4324 c0 -11 3 -14 6 -6 3 7 2 16 -1 19 -3 4 -6 -2 -5 -13z"/>
<path d="M1121 4314 c0 -11 3 -14 6 -6 3 7 2 16 -1 19 -3 4 -6 -2 -5 -13z"/>
<path d="M2041 4314 c0 -11 3 -14 6 -6 3 7 2 16 -1 19 -3 4 -6 -2 -5 -13z"/>
<path d="M2837 4306 c10 -13 19 -20 21 -15 2 5 -3 16 -11 24 -24 23 -30 18
-10 -9z"/>
<path d="M3121 4314 c0 -11 3 -14 6 -6 3 7 2 16 -1 19 -3 4 -6 -2 -5 -13z"/>
<path d="M1352 4300 c0 -14 2 -19 5 -12 2 6 2 18 0 25 -3 6 -5 1 -5 -13z"/>
<path d="M1951 4304 c0 -11 3 -14 6 -6 3 7 2 16 -1 19 -3 4 -6 -2 -5 -13z"/>
<path d="M2073 4295 c-12 -14 -18 -27 -14 -29 4 -3 15 8 25 25 21 35 18 37
-11 4z"/>
<path d="M2751 4304 c0 -11 3 -14 6 -6 3 7 2 16 -1 19 -3 4 -6 -2 -5 -13z"/>
<path d="M3310 4279 c-21 -41 -21 -69 0 -30 8 16 20 21 50 21 32 0 40 4 39 18
0 10 -3 12 -6 5 -2 -7 -18 -13 -35 -13 -25 0 -29 3 -25 20 8 32 -1 24 -23 -21z"/>
<path d="M1491 4287 c17 -32 19 -33 19 -10 0 12 -7 23 -15 27 -13 5 -14 2 -4
-17z"/>
<path d="M2283 4275 c0 -22 2 -30 4 -17 2 12 2 30 0 40 -3 9 -5 -1 -4 -23z"/>
<path d="M1221 4284 c0 -11 3 -14 6 -6 3 7 2 16 -1 19 -3 4 -6 -2 -5 -13z"/>
<path d="M1698 4288 c5 -7 12 -22 15 -33 4 -16 5 -14 6 6 1 17 -5 29 -15 33
-13 5 -14 3 -6 -6z"/>
<path d="M2893 4264 c-19 -29 -19 -32 -3 -22 16 10 35 48 27 54 -1 1 -12 -13
-24 -32z"/>
<path d="M3531 4284 c0 -11 3 -14 6 -6 3 7 2 16 -1 19 -3 4 -6 -2 -5 -13z"/>
<path d="M3642 4280 c0 -14 2 -19 5 -12 2 6 2 18 0 25 -3 6 -5 1 -5 -13z"/>
<path d="M631 4264 c0 -11 3 -14 6 -6 3 7 2 16 -1 19 -3 4 -6 -2 -5 -13z"/>
<path d="M671 4264 c0 -11 3 -14 6 -6 3 7 2 16 -1 19 -3 4 -6 -2 -5 -13z"/>
<path d="M1001 4264 c0 -11 3 -14 6 -6 3 7 2 16 -1 19 -3 4 -6 -2 -5 -13z"/>
<path d="M2171 4264 c0 -11 3 -14 6 -6 3 7 2 16 -1 19 -3 4 -6 -2 -5 -13z"/>
<path d="M2531 4264 c0 -11 3 -14 6 -6 3 7 2 16 -1 19 -3 4 -6 -2 -5 -13z"/>
<path d="M435 4247 c4 -19 2 -26 -5 -22 -5 3 -10 1 -10 -4 0 -6 8 -11 18 -11
9 0 28 -3 42 -6 l25 -6 -25 14 c-13 7 -31 25 -38 38 l-14 25 7 -28z"/>
<path d="M541 4254 c0 -11 3 -14 6 -6 3 7 2 16 -1 19 -3 4 -6 -2 -5 -13z"/>
<path d="M785 4253 c-10 -24 -14 -43 -9 -43 7 0 25 52 21 57 -3 2 -8 -4 -12
-14z"/>
<path d="M851 4254 c0 -11 3 -14 6 -6 3 7 2 16 -1 19 -3 4 -6 -2 -5 -13z"/>
<path d="M1129 4243 l-24 -28 28 24 c25 23 32 31 24 31 -2 0 -14 -12 -28 -27z"/>
<path d="M1940 4252 c0 -10 -5 -23 -12 -30 -9 -9 -7 -12 8 -12 17 0 20 5 16
30 -5 33 -12 40 -12 12z"/>
<path d="M2240 4264 c0 -6 7 -19 16 -30 14 -18 14 -18 3 6 -14 31 -19 36 -19
24z"/>
<path d="M2419 4243 l-24 -28 28 24 c25 23 32 31 24 31 -2 0 -14 -12 -28 -27z"/>
<path d="M2659 4243 l-24 -28 28 24 c25 23 32 31 24 31 -2 0 -14 -12 -28 -27z"/>
<path d="M892 4235 c0 -16 2 -22 5 -12 2 9 2 23 0 30 -3 6 -5 -1 -5 -18z"/>
<path d="M1340 4241 c0 -11 -6 -22 -12 -24 -7 -3 -3 -6 8 -6 17 -1 20 4 16 24
-5 30 -12 33 -12 6z"/>
<path d="M1570 4254 c0 -36 91 -65 140 -46 20 8 15 9 -25 5 -46 -5 -52 -3 -63
18 -7 13 -10 16 -8 7 7 -25 -10 -22 -28 4 -9 12 -16 18 -16 12z"/>
<path d="M2021 4250 c0 -8 4 -22 9 -30 12 -18 12 -2 0 25 -6 13 -9 15 -9 5z"/>
<path d="M3222 4247 c-6 -7 -7 -19 -3 -26 6 -9 10 -5 13 13 6 30 5 31 -10 13z"/>
<path d="M552 4236 c-29 -17 -38 -26 -25 -26 6 0 21 9 34 20 27 22 24 24 -9 6z"/>
<path d="M1206 4225 c-3 -8 -1 -15 4 -15 6 0 10 7 10 15 0 8 -2 15 -4 15 -2 0
-6 -7 -10 -15z"/>
<path d="M1480 4220 c13 -23 20 -26 20 -6 0 8 -7 16 -15 20 -13 4 -14 2 -5
-14z"/>
<path d="M3516 4225 c-3 -8 -1 -15 4 -15 6 0 10 7 10 15 0 8 -2 15 -4 15 -2 0
-6 -7 -10 -15z"/>
<path d="M3560 4225 c0 -8 4 -15 10 -15 5 0 7 7 4 15 -4 8 -8 15 -10 15 -2 0
-4 -7 -4 -15z"/>
<path d="M3616 4225 c-20 -15 -20 -15 0 -15 12 0 21 7 21 15 0 8 -1 15 -1 15
-1 0 -10 -7 -20 -15z"/>
<path d="M615 4220 c-3 -5 -1 -10 4 -10 6 0 11 5 11 10 0 6 -2 10 -4 10 -3 0
-8 -4 -11 -10z"/>
<path d="M735 4220 c-19 -8 -19 -9 3 -9 12 -1 22 4 22 9 0 6 -1 10 -2 9 -2 0
-12 -4 -23 -9z"/>
<path d="M1080 4220 c-13 -8 -12 -10 3 -10 9 0 17 5 17 10 0 12 -1 12 -20 0z"/>
<path d="M1250 4220 c0 -5 5 -10 11 -10 5 0 7 5 4 10 -3 6 -8 10 -11 10 -2 0
-4 -4 -4 -10z"/>
<path d="M2115 4220 c-3 -5 -1 -10 4 -10 6 0 11 5 11 10 0 6 -2 10 -4 10 -3 0
-8 -4 -11 -10z"/>
<path d="M2285 4221 c-3 -5 4 -13 16 -16 25 -8 89 2 89 15 0 4 -14 3 -30 -3
-23 -9 -35 -9 -50 1 -11 6 -21 8 -25 3z"/>
<path d="M2610 4220 c-13 -8 -12 -10 3 -10 9 0 17 5 17 10 0 12 -1 12 -20 0z"/>
<path d="M2840 4220 c-13 -8 -12 -10 3 -10 9 0 17 5 17 10 0 12 -1 12 -20 0z"/>
<path d="M3180 4220 c-13 -8 -12 -10 3 -10 9 0 17 5 17 10 0 12 -1 12 -20 0z"/>
<path d="M3450 4220 c0 -5 5 -10 11 -10 5 0 7 5 4 10 -3 6 -8 10 -11 10 -2 0
-4 -4 -4 -10z"/>
<path d="M2168 4213 c7 -3 16 -2 19 1 4 3 -2 6 -13 5 -11 0 -14 -3 -6 -6z"/>
<path d="M3268 4213 c7 -3 16 -2 19 1 4 3 -2 6 -13 5 -11 0 -14 -3 -6 -6z"/>
<path d="M3388 4213 c7 -3 16 -2 19 1 4 3 -2 6 -13 5 -11 0 -14 -3 -6 -6z"/>
<path d="M2021 4003 c-13 -27 -35 -73 -48 -103 l-25 -55 36 34 36 35 0 -734 0
-735 -272 270 c-150 149 -434 430 -630 625 -340 337 -359 354 -375 337 -17
-16 12 -47 600 -635 339 -339 617 -620 617 -625 0 -4 -342 -7 -760 -7 l-760 0
0 -25 0 -25 790 0 790 0 0 -27 c0 -16 -7 -37 -15 -47 -20 -26 -20 -60 0 -52
13 5 15 -80 15 -724 l0 -730 30 0 30 0 0 681 c0 411 4 678 9 675 5 -4 32 8 60
26 50 30 52 31 66 12 19 -25 19 -23 -15 -77 -25 -40 -27 -49 -15 -53 9 -4 33
5 55 20 46 30 50 31 75 12 18 -13 17 -15 -14 -66 -42 -69 -30 -81 39 -39 51
31 53 32 66 14 19 -25 18 -32 -12 -83 -35 -59 -21 -70 39 -32 46 29 49 29 72
14 l25 -16 -22 -37 c-11 -20 -25 -40 -30 -45 -10 -12 -11 -46 -1 -46 3 0 27
14 53 30 28 18 54 28 63 24 29 -11 30 -41 3 -81 -35 -51 -19 -63 39 -28 26 15
47 25 48 23 1 -1 11 -13 21 -25 19 -22 18 -23 -8 -64 -38 -57 -22 -72 35 -35
l42 28 266 -266 c250 -250 267 -265 283 -249 16 15 0 35 -267 308 l-284 292
34 51 c57 83 43 99 -40 47 -45 -29 -59 -34 -71 -24 -20 16 -18 23 21 84 21 33
30 57 24 61 -6 3 -36 -10 -67 -29 -52 -33 -58 -34 -74 -20 -23 21 -23 27 7 71
26 38 33 72 14 72 -6 0 -31 -14 -56 -31 l-45 -31 -21 20 -20 21 33 51 c45 70
30 85 -40 40 l-51 -33 -21 20 -20 21 31 45 c52 76 38 92 -36 42 -51 -34 -51
-34 -69 -14 -13 15 -16 24 -8 37 6 9 20 34 32 54 31 51 12 58 -50 18 -51 -31
-51 -31 -71 -12 -19 19 -19 20 7 61 l26 41 652 0 652 0 -34 -35 c-19 -19 -30
-35 -24 -34 5 0 51 21 102 47 l92 47 -96 48 c-53 26 -98 46 -101 44 -2 -3 10
-16 27 -30 16 -14 30 -28 30 -31 0 -3 -47 -6 -105 -6 -100 0 -105 1 -105 21 0
17 -4 20 -22 15 -13 -3 -26 -6 -30 -6 -5 0 -8 -7 -8 -15 0 -13 -73 -15 -595
-15 l-595 0 0 752 0 752 36 -35 35 -34 -48 102 c-26 56 -50 102 -54 102 -3 1
-16 -20 -28 -46z m121 -1655 c-9 -9 -15 -9 -24 0 -9 9 -7 12 12 12 19 0 21 -3
12 -12z m46 -23 c-12 -27 -23 -31 -33 -14 -4 6 1 17 11 24 28 21 35 18 22 -10z
m-58 -76 c0 -11 -11 -37 -25 -57 l-25 -37 0 61 c0 33 3 64 6 67 12 12 44 -13
44 -34z m148 -29 c-9 -13 -16 -16 -23 -9 -7 7 -5 13 5 19 24 15 31 11 18 -10z
m-108 -5 c0 -8 -9 -19 -20 -25 -18 -10 -19 -9 -8 15 12 27 28 33 28 10z m210
-72 c-1 -18 -19 -35 -29 -28 -9 5 -7 11 6 21 21 16 23 16 23 7z m-124 -41 c-8
-9 -19 -13 -22 -9 -10 9 16 38 28 31 6 -4 4 -13 -6 -22z m224 -61 c-13 -26
-27 -34 -35 -20 -4 5 1 17 11 24 27 20 36 18 24 -4z m-126 -36 c-35 -27 -41
-16 -11 23 7 9 13 10 21 2 7 -7 4 -14 -10 -25z m216 -75 c-9 -16 -15 -19 -23
-11 -8 8 -6 15 9 25 24 18 29 14 14 -14z m-110 -10 c0 -5 -9 -14 -20 -20 -22
-12 -27 -1 -8 18 14 14 28 16 28 2z m210 -90 c-9 -17 -15 -19 -23 -10 -9 9 -7
15 7 26 25 18 31 12 16 -16z m-106 1 c3 -5 -5 -16 -19 -25 -27 -18 -30 -15
-15 15 11 20 25 25 34 10z m210 -86 c-16 -25 -34 -29 -41 -9 -3 8 48 44 55 38
2 -1 -4 -14 -14 -29z m-124 -20 c-7 -9 -15 -13 -17 -11 -7 7 7 26 19 26 6 0 6
-6 -2 -15z m98 -97 c-2 -6 -10 -14 -16 -16 -7 -2 -10 2 -6 12 7 18 28 22 22 4z"/>
<path d="M1820 3906 c0 -9 5 -16 10 -16 6 0 10 4 10 9 0 6 -4 13 -10 16 -5 3
-10 -1 -10 -9z"/>
<path d="M1785 3850 c-3 -5 -2 -10 3 -10 22 0 22 -34 1 -57 -13 -12 -17 -23
-11 -23 6 0 16 8 21 18 10 16 12 16 25 0 23 -30 41 -22 21 9 -17 26 -17 27 4
44 11 9 21 21 21 25 0 4 -9 -1 -21 -12 -20 -18 -22 -18 -34 -1 -14 19 -21 21
-30 7z"/>
<path d="M2809 3271 c-23 -24 -29 -38 -29 -74 0 -56 27 -92 80 -108 33 -10 43
-9 71 7 18 11 42 35 53 53 16 28 17 38 7 71 -16 53 -52 80 -108 80 -36 0 -50
-6 -74 -29z m129 -8 c30 -41 2 -103 -48 -103 -40 0 -63 22 -63 60 0 62 74 90
111 43z"/>
<path d="M2975 3090 c-10 -11 -15 -23 -12 -27 8 -7 47 25 47 39 0 14 -16 9
-35 -12z"/>
<path d="M3012 3050 c-14 -12 -18 -21 -12 -25 12 -7 50 21 50 37 0 13 -13 9
-38 -12z"/>
<path d="M3052 3010 c-25 -21 -28 -30 -9 -30 18 0 51 36 40 43 -4 3 -18 -3
-31 -13z"/>
<path d="M3081 2961 c-13 -10 -19 -21 -14 -24 11 -7 53 19 53 34 0 14 -12 11
-39 -10z"/>
<path d="M3116 2915 c-11 -8 -17 -17 -14 -21 8 -8 48 14 48 26 0 14 -12 12
-34 -5z"/>
<path d="M3150 2870 c-14 -10 -22 -21 -19 -25 8 -7 59 15 59 26 0 17 -17 17
-40 -1z"/>
<path d="M3183 2823 c-23 -16 -30 -33 -14 -33 5 0 19 8 32 18 28 23 12 35 -18
15z"/>
<path d="M3194 2766 c-10 -8 -16 -17 -13 -21 8 -7 59 15 59 27 0 13 -24 10
-46 -6z"/>
<path d="M3221 2716 c-14 -8 -19 -16 -13 -20 13 -8 63 14 56 25 -7 12 -14 11
-43 -5z"/>
<path d="M3246 2666 c-16 -7 -24 -16 -18 -20 15 -9 65 12 57 24 -3 5 -7 10 -8
9 -1 0 -15 -6 -31 -13z"/>
<path d="M3263 2613 c-28 -5 -30 -23 -4 -23 28 0 52 11 45 21 -3 5 -8 8 -12 8
-4 -1 -17 -4 -29 -6z"/>
<path d="M3261 2551 c-7 -5 -9 -11 -5 -14 13 -8 64 4 64 14 0 11 -41 11 -59 0z"/>
<path d="M3288 2502 c-16 -2 -28 -8 -28 -13 0 -12 57 -12 65 0 7 13 -5 17 -37
13z"/>
<path d="M3260 2320 c0 -5 14 -10 30 -10 17 0 30 5 30 10 0 6 -13 10 -30 10
-16 0 -30 -4 -30 -10z"/>
<path d="M3250 2271 c0 -11 50 -24 58 -16 8 8 -19 25 -40 25 -10 0 -18 -4 -18
-9z"/>
<path d="M3235 2221 c-3 -5 8 -14 25 -19 18 -7 32 -7 35 -1 4 5 -1 11 -9 14
-9 3 -23 7 -31 10 -8 2 -17 0 -20 -4z"/>
<path d="M3513 2202 c22 -24 21 -31 -5 -61 l-23 -26 26 23 26 23 15 -23 c20
-30 32 -18 17 16 -10 22 -9 29 7 48 l19 23 -23 -20 c-22 -18 -24 -18 -33 -2
-6 9 -17 17 -26 17 -15 0 -15 -2 0 -18z"/>
<path d="M3215 2169 c-4 -5 6 -14 20 -19 33 -12 45 -13 45 -1 0 13 -58 32 -65
20z"/>
<path d="M3195 2120 c-3 -5 8 -16 25 -25 24 -13 30 -13 30 -2 0 17 -47 40 -55
27z"/>
<path d="M3165 2070 c-3 -5 8 -16 24 -25 18 -9 32 -11 36 -5 3 5 -8 16 -24 25
-18 9 -32 11 -36 5z"/>
<path d="M3137 2024 c-6 -6 35 -44 47 -44 13 0 5 23 -11 36 -20 15 -27 17 -36
8z"/>
<path d="M3106 1983 c-8 -9 24 -43 41 -43 7 0 13 3 13 8 -1 11 -47 42 -54 35z"/>
<path d="M3070 1932 c0 -14 39 -46 47 -39 3 4 -2 16 -12 27 -19 21 -35 26 -35
12z"/>
<path d="M3030 1892 c0 -14 39 -46 47 -39 3 4 -2 16 -12 27 -19 21 -35 26 -35
12z"/>
<path d="M2990 1852 c0 -14 39 -46 47 -39 3 4 -2 16 -12 27 -19 21 -35 26 -35
12z"/>
<path d="M2946 1822 c-3 -5 5 -19 18 -31 13 -13 26 -18 30 -13 3 5 -5 19 -18
31 -13 13 -26 18 -30 13z"/>
<path d="M2900 1784 c0 -3 9 -17 19 -30 12 -16 22 -21 26 -14 4 6 -1 20 -11
31 -17 18 -34 25 -34 13z"/>
<path d="M2860 1748 c1 -19 29 -53 37 -45 8 8 -17 57 -29 57 -4 0 -8 -6 -8
-12z"/>
<path d="M2815 1721 c-8 -13 16 -51 32 -51 18 0 16 8 -6 36 -11 14 -22 20 -26
15z"/>
<path d="M2194 414 c-99 -176 -147 -252 -166 -263 -16 -9 -28 -18 -28 -21 0
-4 131 -4 159 0 2 0 -7 8 -20 19 -22 17 -22 21 -10 62 20 66 24 69 112 69 76
0 80 -1 89 -26 6 -14 10 -40 10 -59 0 -29 -4 -35 -34 -46 -19 -7 -33 -15 -31
-18 1 -3 56 -5 122 -3 98 3 115 6 101 16 -23 17 -28 31 -94 282 -31 120 -60
223 -64 227 -4 5 -70 -103 -146 -239z m198 -22 c31 -120 58 -225 60 -233 2
-10 -10 -15 -47 -17 l-50 -3 -1 60 c0 33 -16 123 -34 201 -34 141 -34 141 -15
176 10 19 21 34 24 34 3 0 32 -98 63 -218z m-94 6 c12 -51 22 -96 22 -100 0
-5 -34 -8 -75 -8 -62 0 -75 3 -75 16 0 19 89 184 99 184 4 0 17 -42 29 -92z
m-192 -244 c-6 -16 -36 -19 -36 -4 0 6 8 23 18 38 17 26 17 26 20 3 2 -12 1
-29 -2 -37z"/>
<path d="M975 630 c3 -5 15 -10 25 -10 10 0 21 -4 25 -9 3 -6 -9 -91 -26 -191
-36 -209 -33 -245 24 -280 69 -42 197 -35 263 15 51 39 73 93 103 255 28 154
45 194 87 210 13 5 24 12 24 15 0 3 -36 5 -80 5 -75 0 -105 -11 -61 -23 11 -2
22 -17 25 -34 9 -40 -39 -305 -64 -353 -55 -108 -200 -135 -231 -43 -9 29 -6
65 21 221 18 103 37 193 42 200 6 6 21 12 34 12 12 0 26 5 29 10 4 6 -38 10
-120 10 -82 0 -124 -4 -120 -10z m152 -32 c-3 -13 -19 -102 -36 -198 -23 -134
-28 -185 -21 -215 5 -22 7 -42 4 -44 -8 -9 -59 36 -73 65 -15 30 -12 54 40
352 l11 62 40 0 c37 0 40 -2 35 -22z m297 7 c-4 -8 -10 -15 -15 -15 -5 0 -9 7
-9 15 0 8 7 15 15 15 9 0 12 -6 9 -15z"/>
<path d="M1540 635 c0 -3 11 -10 25 -15 15 -6 25 -17 25 -30 0 -11 -16 -109
-35 -218 -29 -163 -38 -200 -56 -214 -12 -10 -27 -18 -35 -18 -8 0 -14 -3 -14
-7 0 -5 37 -6 82 -4 69 3 78 5 52 12 -18 5 -34 15 -37 22 -6 17 56 374 67 384
5 5 10 4 12 -2 14 -36 251 -428 259 -427 5 1 28 106 51 234 23 128 45 241 49
251 4 9 18 17 30 17 13 0 27 5 30 10 4 6 -23 10 -75 10 -52 0 -79 -4 -75 -10
3 -5 15 -10 26 -10 11 0 23 -8 26 -17 6 -16 -31 -260 -42 -271 -7 -7 -2 -15
-100 156 l-87 152 -89 0 c-49 0 -89 -2 -89 -5z m263 -187 c98 -172 98 -173 92
-225 -4 -29 -10 -55 -13 -57 -6 -4 -111 169 -240 396 l-33 58 48 0 48 0 98
-172z"/>
<path d="M2640 630 c0 -5 14 -10 30 -10 17 0 30 -3 30 -7 0 -4 -16 -102 -36
-218 -32 -185 -39 -213 -61 -232 -13 -13 -31 -23 -40 -23 -9 0 -14 -3 -10 -6
4 -5 111 -8 155 -4 4 0 -8 9 -25 20 -18 11 -33 25 -33 32 0 16 60 370 66 388
5 13 6 13 14 0 9 -17 42 -147 85 -334 22 -96 29 -116 40 -105 7 8 70 111 140
229 71 118 130 217 132 219 12 15 7 -26 -23 -199 -31 -172 -38 -198 -60 -218
-14 -12 -32 -22 -41 -22 -9 0 -14 -3 -11 -6 5 -4 187 -7 246 -4 4 0 -8 9 -25
20 -18 11 -33 28 -33 37 0 27 66 385 75 406 4 10 20 21 36 24 58 11 26 23 -63
23 l-93 0 -104 -175 c-57 -96 -106 -177 -111 -180 -4 -2 -26 77 -50 175 l-44
180 -93 0 c-55 0 -93 -4 -93 -10z m176 -37 c3 -16 24 -100 46 -188 39 -157 39
-159 22 -197 -9 -21 -20 -38 -24 -38 -4 0 -31 93 -59 208 -29 114 -54 215 -57
225 -4 14 1 17 30 17 31 0 37 -4 42 -27z m426 15 c-12 -15 -84 -412 -80 -442
3 -18 -3 -21 -46 -24 -44 -3 -48 -1 -41 15 5 10 26 118 49 241 l40 222 44 0
c34 0 42 -3 34 -12z"/>
</g>
</svg>
