<?xml version="1.0" standalone="no"?>
<!DOCTYPE svg PUBLIC "-//W3C//DTD SVG 20010904//EN"
 "http://www.w3.org/TR/2001/REC-SVG-20010904/DTD/svg10.dtd">
<svg version="1.0" xmlns="http://www.w3.org/2000/svg"
 width="410.000000pt" height="462.000000pt" viewBox="0 0 410.000000 462.000000"
 preserveAspectRatio="xMidYMid meet">
<metadata>
Created by potrace 1.16, written by Peter Selinger 2001-2019
</metadata>
<g transform="translate(0.000000,462.000000) scale(0.100000,-0.100000)"
fill="#000000" stroke="none">
<path d="M144 4590 c-58 -33 -99 -77 -125 -135 -18 -38 -19 -129 -19 -2143 l0
-2103 25 -49 c55 -108 136 -159 253 -160 l72 0 0 2310 0 2310 -77 0 c-68 0
-85 -4 -129 -30z"/>
<path d="M3757 3448 c-4 -644 -7 -1684 -7 -2310 l0 -1138 78 0 c67 0 84 4 128
30 28 16 66 47 83 69 66 83 61 -99 61 2213 0 2014 -1 2105 -19 2143 -26 58
-67 102 -125 135 -43 25 -62 30 -122 30 l-71 0 -6 -1172z"/>
<path d="M2021 4003 c-13 -27 -35 -73 -48 -103 l-25 -55 36 34 36 35 0 -734 0
-735 -272 270 c-150 149 -434 430 -630 625 -340 337 -359 354 -375 337 -17
-16 12 -47 600 -635 339 -339 617 -620 617 -625 0 -4 -342 -7 -760 -7 l-760 0
0 -25 0 -25 790 0 790 0 0 -27 c0 -16 -7 -37 -15 -47 -20 -26 -20 -60 0 -52
13 5 15 -80 15 -724 l0 -730 30 0 30 0 0 681 c0 443 3 678 10 674 5 -3 27 6
47 20 43 29 65 31 83 10 11 -13 7 -24 -18 -66 -26 -41 -29 -51 -17 -56 9 -3
34 7 57 22 31 21 46 25 57 18 25 -16 24 -38 -4 -83 -35 -56 -21 -70 34 -36 47
30 63 32 82 10 12 -14 9 -24 -14 -67 -16 -28 -25 -53 -20 -58 5 -5 30 4 57 21
46 29 49 30 67 14 24 -22 24 -27 -6 -74 -24 -38 -32 -70 -18 -70 3 0 28 14 55
31 47 30 49 31 68 14 26 -23 25 -29 -5 -73 -32 -47 -19 -62 30 -33 45 26 57
26 80 1 17 -19 17 -21 -9 -61 -38 -57 -22 -72 35 -35 l42 28 266 -266 c249
-249 268 -265 283 -250 16 16 -1 36 -263 305 -153 158 -279 292 -279 299 0 6
14 31 30 55 52 76 35 91 -45 40 -45 -29 -59 -34 -71 -24 -20 16 -18 23 21 84
21 33 30 57 24 61 -6 3 -36 -10 -67 -29 -52 -33 -58 -34 -74 -20 -23 21 -23
27 7 71 26 38 33 72 14 72 -6 0 -31 -14 -56 -31 l-45 -31 -21 20 -20 21 33 51
c45 70 30 85 -40 40 l-51 -33 -21 20 -20 21 32 47 c18 26 29 53 26 62 -7 16 0
19 -81 -33 -27 -17 -52 -13 -61 10 -3 8 8 36 25 62 40 65 26 76 -40 35 -52
-32 -52 -32 -72 -13 -19 19 -19 20 7 61 l26 41 652 0 652 0 -34 -35 c-19 -19
-30 -35 -24 -34 5 0 51 21 102 47 l92 47 -96 48 c-53 26 -98 46 -101 44 -2 -3
10 -16 27 -30 16 -14 30 -28 30 -31 0 -3 -47 -6 -105 -6 -100 0 -105 1 -105
21 0 17 -4 20 -22 15 -13 -3 -26 -6 -30 -6 -5 0 -8 -7 -8 -15 0 -13 -73 -15
-595 -15 l-595 0 0 752 0 752 36 -35 35 -34 -48 102 c-26 56 -50 102 -54 102
-3 1 -16 -20 -28 -46z"/>
<path d="M2809 3271 c-57 -57 -32 -155 46 -181 82 -27 162 53 135 134 -26 79
-124 104 -181 47z"/>
<path d="M2194 414 c-99 -176 -147 -252 -166 -263 -16 -9 -28 -18 -28 -21 0
-4 131 -4 159 0 2 0 -7 8 -20 19 -22 17 -22 21 -10 62 20 66 24 69 112 69 76
0 80 -1 89 -26 6 -14 10 -40 10 -59 0 -29 -4 -35 -34 -46 -19 -7 -33 -15 -31
-18 1 -3 56 -5 122 -3 98 3 115 6 101 16 -23 17 -28 31 -94 282 -31 120 -60
223 -64 227 -4 5 -70 -103 -146 -239z m198 -22 c31 -120 58 -225 60 -233 2
-10 -10 -15 -47 -17 l-50 -3 -1 60 c0 33 -16 123 -34 201 -34 141 -34 141 -15
176 10 19 21 34 24 34 3 0 32 -98 63 -218z m-94 6 c12 -51 22 -96 22 -100 0
-5 -34 -8 -75 -8 -62 0 -75 3 -75 16 0 19 89 184 99 184 4 0 17 -42 29 -92z"/>
<path d="M975 630 c3 -5 15 -10 25 -10 10 0 21 -4 25 -9 3 -6 -9 -91 -26 -191
-36 -209 -33 -245 24 -280 69 -42 197 -35 263 15 51 39 73 93 103 255 28 154
45 194 87 210 13 5 24 12 24 15 0 3 -36 5 -80 5 -75 0 -105 -11 -61 -23 11 -2
22 -17 25 -34 9 -40 -39 -305 -64 -353 -55 -108 -200 -135 -231 -43 -9 29 -6
65 21 221 18 103 37 193 42 200 6 6 21 12 34 12 12 0 26 5 29 10 4 6 -38 10
-120 10 -82 0 -124 -4 -120 -10z m152 -32 c-3 -13 -19 -102 -36 -198 -23 -134
-28 -185 -21 -215 5 -22 7 -42 4 -44 -8 -9 -59 36 -73 65 -15 30 -12 54 40
352 l11 62 40 0 c37 0 40 -2 35 -22z"/>
<path d="M1540 635 c0 -3 11 -10 25 -15 15 -6 25 -17 25 -30 0 -11 -16 -109
-35 -218 -29 -163 -38 -200 -56 -214 -12 -10 -27 -18 -35 -18 -8 0 -14 -3 -14
-7 0 -5 37 -6 82 -4 69 3 78 5 52 12 -18 5 -34 15 -37 22 -6 17 56 374 67 384
5 5 10 4 12 -2 14 -36 251 -428 259 -427 5 1 28 106 51 234 23 128 45 241 49
251 4 9 18 17 30 17 13 0 27 5 30 10 4 6 -23 10 -75 10 -52 0 -79 -4 -75 -10
3 -5 15 -10 26 -10 11 0 23 -8 26 -17 6 -16 -31 -260 -42 -271 -7 -7 -2 -15
-100 156 l-87 152 -89 0 c-49 0 -89 -2 -89 -5z m263 -187 c98 -172 98 -173 92
-225 -4 -29 -10 -55 -13 -57 -6 -4 -111 169 -240 396 l-33 58 48 0 48 0 98
-172z"/>
<path d="M2640 630 c0 -5 14 -10 30 -10 17 0 30 -3 30 -7 0 -4 -16 -102 -36
-218 -32 -185 -39 -213 -61 -232 -13 -13 -31 -23 -40 -23 -9 0 -14 -3 -10 -6
4 -5 111 -8 155 -4 4 0 -8 9 -25 20 -18 11 -33 25 -33 32 0 16 60 370 66 388
5 13 6 13 14 0 9 -17 42 -147 85 -334 22 -96 29 -116 40 -105 7 8 70 111 140
229 71 118 130 217 132 219 12 15 7 -26 -23 -199 -31 -172 -38 -198 -60 -218
-14 -12 -32 -22 -41 -22 -9 0 -14 -3 -11 -6 5 -4 187 -7 246 -4 4 0 -8 9 -25
20 -18 11 -33 28 -33 37 0 27 66 385 75 406 4 10 20 21 36 24 58 11 26 23 -63
23 l-93 0 -104 -175 c-57 -96 -106 -177 -111 -180 -4 -2 -26 77 -50 175 l-44
180 -93 0 c-55 0 -93 -4 -93 -10z m176 -37 c3 -16 24 -100 46 -188 39 -157 39
-159 22 -197 -9 -21 -20 -38 -24 -38 -4 0 -31 93 -59 208 -29 114 -54 215 -57
225 -4 14 1 17 30 17 31 0 37 -4 42 -27z m426 15 c-12 -15 -84 -412 -80 -442
3 -18 -3 -21 -46 -24 -44 -3 -48 -1 -41 15 5 10 26 118 49 241 l40 222 44 0
c34 0 42 -3 34 -12z"/>
</g>
</svg>
